<?xml version="1.0" encoding="utf-8"?>
<!-- Generator: Adobe Illustrator 19.0.0, SVG Export Plug-In . SVG Version: 6.00 Build 0)  -->
<svg version="1.1" id="Layer_1" xmlns="http://www.w3.org/2000/svg" xmlns:xlink="http://www.w3.org/1999/xlink" x="0px" y="0px"
	 viewBox="0 0 2000 2000" style="enable-background:new 0 0 2000 2000;" xml:space="preserve">
<style type="text/css">
	.st0{fill:none;}
	.st1{fill:#ED1C24;stroke:#ED1C24;stroke-width:8;stroke-linecap:round;stroke-linejoin:round;stroke-miterlimit:10;}
	.st2{fill:none;stroke:#ED2024;stroke-width:15;stroke-linecap:round;stroke-linejoin:round;stroke-miterlimit:10;}
	.st3{fill:#ED1C24;}
	.st4{fill:#ED1C24;stroke:#FFFFFF;stroke-width:5;stroke-linecap:round;stroke-linejoin:round;stroke-miterlimit:10;}
	.st5{fill:url(#XMLID_9_);stroke:url(#czv_patern);stroke-miterlimit:10;}
</style>
<pattern  width="490.2" height="829.5" patternUnits="userSpaceOnUse" id="czv_patern" viewBox="0 -900.1 490.2 829.5" style="overflow:visible;">
	<g id="XMLID_120_">
		<polygon id="XMLID_298_" class="st0" points="0,-900.1 490.2,-900.1 490.2,-70.6 0,-70.6 		"/>
		<g id="XMLID_218_">
			<g id="XMLID_287_">
				<g id="XMLID_293_">
					<polygon id="XMLID_297_" class="st1" points="408.6,-765.8 400.5,-750.9 389.5,-756.9 					"/>
					<path id="XMLID_296_" class="st1" d="M408.6-765.8l-19,8.9C393.9-765.1,402.5-769.1,408.6-765.8z"/>
					<polygon id="XMLID_295_" class="st1" points="389.5,-756.9 400.5,-750.9 392.5,-736 					"/>
					<path id="XMLID_294_" class="st1" d="M389.5-756.9l3,20.8C386.4-739.3,385.1-748.6,389.5-756.9z"/>
				</g>
				<g id="XMLID_288_">
					<polyline id="XMLID_292_" class="st1" points="306.6,-801.5 389.5,-756.9 400.5,-750.9 414.4,-743.4 					"/>
					<path id="XMLID_291_" class="st1" d="M392.5-736c-6.1-3.3-7.5-12.6-3-20.8"/>
					<path id="XMLID_290_" class="st1" d="M408.6-765.8c-6.1-3.3-14.6,0.7-19,8.9"/>
					<polyline id="XMLID_289_" class="st1" points="392.5,-736 400.5,-750.9 408.6,-765.8 					"/>
				</g>
			</g>
			<g id="XMLID_276_">
				<g id="XMLID_282_">
					<polygon id="XMLID_286_" class="st1" points="323.9,-740.4 338.8,-732.4 344.7,-743.4 					"/>
					<path id="XMLID_285_" class="st1" d="M323.9-740.4l20.8-3C336.5-747.9,327.2-746.5,323.9-740.4z"/>
					<polygon id="XMLID_284_" class="st1" points="344.7,-743.4 338.8,-732.4 353.6,-724.4 					"/>
					<path id="XMLID_283_" class="st1" d="M344.7-743.4l8.9,19.1C356.9-730.5,352.9-739,344.7-743.4z"/>
				</g>
				<g id="XMLID_277_">
					<polyline id="XMLID_281_" class="st1" points="389.4,-826.3 344.7,-743.4 338.8,-732.4 331.3,-718.5 					"/>
					<path id="XMLID_280_" class="st1" d="M353.6-724.4c3.3-6.1-0.7-14.6-8.9-19.1"/>
					<path id="XMLID_279_" class="st1" d="M323.9-740.4c3.3-6.1,12.6-7.4,20.8-3"/>
					<polyline id="XMLID_278_" class="st1" points="353.6,-724.4 338.8,-732.4 323.9,-740.4 					"/>
				</g>
			</g>
		</g>
		<g id="XMLID_216_">
			<polygon id="XMLID_217_" class="st2" points="127.2,-931.6 147.8,-901.9 182.4,-912.3 160.5,-883.5 181.1,-853.8 147,-865.8 
				125.1,-837 125.9,-873.1 91.8,-885.1 126.4,-895.5 			"/>
		</g>
		<g id="XMLID_158_">
			<g id="XMLID_205_">
				<g id="XMLID_211_">
					<polygon id="XMLID_215_" class="st1" points="163.4,-351 155.4,-336.2 144.4,-342.1 					"/>
					<path id="XMLID_214_" class="st1" d="M163.4-351l-19,8.9C148.8-350.3,157.3-354.3,163.4-351z"/>
					<polygon id="XMLID_213_" class="st1" points="144.4,-342.1 155.4,-336.2 147.4,-321.3 					"/>
					<path id="XMLID_212_" class="st1" d="M144.4-342.1l3,20.8C141.3-324.6,140-333.9,144.4-342.1z"/>
				</g>
				<g id="XMLID_206_">
					<polyline id="XMLID_210_" class="st1" points="61.5,-386.7 144.4,-342.1 155.4,-336.2 169.3,-328.7 					"/>
					<path id="XMLID_209_" class="st1" d="M147.4-321.3c-6.1-3.3-7.5-12.6-3-20.8"/>
					<path id="XMLID_208_" class="st1" d="M163.4-351c-6.1-3.3-14.6,0.7-19,8.9"/>
					<polyline id="XMLID_207_" class="st1" points="147.4,-321.3 155.4,-336.2 163.4,-351 					"/>
				</g>
			</g>
			<g id="XMLID_194_">
				<g id="XMLID_200_">
					<polygon id="XMLID_204_" class="st1" points="78.8,-325.7 93.7,-317.6 99.6,-328.7 					"/>
					<path id="XMLID_203_" class="st1" d="M78.8-325.7l20.8-3C91.4-333.1,82.1-331.8,78.8-325.7z"/>
					<polygon id="XMLID_202_" class="st1" points="99.6,-328.7 93.7,-317.6 108.5,-309.6 					"/>
					<path id="XMLID_201_" class="st1" d="M99.6-328.7l8.9,19.1C111.8-315.7,107.8-324.2,99.6-328.7z"/>
				</g>
				<g id="XMLID_195_">
					<polyline id="XMLID_199_" class="st1" points="144.3,-411.6 99.6,-328.7 93.7,-317.6 86.2,-303.7 					"/>
					<path id="XMLID_198_" class="st1" d="M108.5-309.6c3.3-6.1-0.7-14.6-8.9-19.1"/>
					<path id="XMLID_197_" class="st1" d="M78.8-325.7c3.3-6.1,12.6-7.4,20.8-3"/>
					<polyline id="XMLID_196_" class="st1" points="108.5,-309.6 93.7,-317.6 78.8,-325.7 					"/>
				</g>
			</g>
			<polygon id="XMLID_193_" class="st2" points="372.3,-516.8 392.9,-487.1 427.5,-497.5 405.6,-468.8 426.2,-439 392.1,-451 
				370.2,-422.3 371,-458.4 336.9,-470.3 371.5,-480.7 			"/>
			<g id="XMLID_159_">
				<g id="XMLID_184_">
					<path id="XMLID_192_" class="st3" d="M226.8-599.3l6,12.6c-0.1,2.7,0.2,5.1,0.6,7.2l-17.7-0.2c0.6-6.8-0.1-14.2-2.3-21.7
						l10.2,1.6L226.8-599.3z"/>
					<path id="XMLID_191_" class="st3" d="M200.8-537.5c-2.3-7.8-4.1-14.1-3.8-14.2c10.6-3.2,17.4-14.2,18.7-28l17.7,0.2
						c1.4,6.5,4.5,9.9,4.5,9.9c6.5,21.8-7.9,45.4-32.3,52.7c-11,0.2-14.5-3.4-18.9-8.1c-4.5-6.9-3.4-19.2,0.6-20.5
						C190.6-539.4,195.2-535.8,200.8-537.5z"/>
					<path id="XMLID_190_" class="st3" d="M197.9-629.5c7.7,0.8,21.2,9.7,25.8,29.6l-10.2-1.6l-4.3-0.7
						C203.7-620.8,200.7-626.2,197.9-629.5z"/>
					<path id="XMLID_189_" class="st3" d="M209.1-602.1l4.3,0.7c2.2,7.5,3,14.9,2.3,21.7c-1.3,13.8-8.1,24.8-18.7,28l-4.2-5.9
						c-0.6-0.2-1.3-0.5-1.9-0.9c15.2-14.9,17-23.5,15.2-44.1L209.1-602.1z"/>
					<path id="XMLID_188_" class="st3" d="M197.9-629.5c2.9,3.3,5.9,8.6,11.2,27.4l-3-0.5c1.8,20.6-0.1,29.1-15.2,44.1
						c-6.4-4.3-15-20.5-22.3-44.9c-5-16.8-4.5-31.8,1.1-33.5c12.5-3.8,20.3-1.4,26.4,5.4C196.6-630.8,197.2-630.1,197.9-629.5z"/>
					<path id="XMLID_187_" class="st3" d="M192.8-557.6l4.2,5.9c-7.8,1-10.9,0.3-13.8-1.5c-0.5-0.3-1-0.7-1.5-1.1l-2.9-7.3
						c3.8,2.1,7.9,3.3,12.1,3C191.5-558.1,192.2-557.7,192.8-557.6z"/>
					<path id="XMLID_186_" class="st3" d="M197-551.7c-0.2,0.1,1.5,6.4,3.8,14.2c-5.6,1.7-10.2-1.9-13.5-7.9
						c-1.4-2.6-4.8-2.7-4.1-7.8C186-551.4,189.2-550.7,197-551.7z"/>
					<path id="XMLID_185_" class="st3" d="M169.7-636.8c-5.6,1.7-6.1,16.7-1.1,33.5c7.3,24.4,15.9,40.6,22.3,44.9
						c-4.2,0.3-8.3-1-12.1-3c-8.2-4.5-15-13-18.2-19.3C147.8-605.6,156.5-632.9,169.7-636.8z"/>
				</g>
				<g id="XMLID_160_">
					<path id="XMLID_183_" class="st4" d="M168.6-603.4c7.3,24.4,15.9,40.6,22.3,44.9c0.7,0.4,1.3,0.8,1.9,0.9"/>
					<path id="XMLID_182_" class="st4" d="M168.6-603.4c-5-16.8-4.5-31.8,1.1-33.5"/>
					<path id="XMLID_181_" class="st4" d="M196-631.4c-6.1-6.8-13.8-9.2-26.4-5.4"/>
					<path id="XMLID_180_" class="st4" d="M160.6-580.8c-12.7-24.8-4-52.1,9.1-56"/>
					<path id="XMLID_179_" class="st4" d="M160.6-580.8c3.2,6.2,10,14.8,18.2,19.3c3.8,2.1,7.9,3.3,12.1,3"/>
					<path id="XMLID_178_" class="st4" d="M206.1-602.6c1.8,20.6-0.1,29.1-15.2,44.1"/>
					<polyline id="XMLID_177_" class="st4" points="206.1,-602.6 209.1,-602.1 213.4,-601.4 223.6,-599.8 226.8,-599.3 					"/>
					<line id="XMLID_176_" class="st4" x1="226.8" y1="-599.3" x2="232.8" y2="-586.8"/>
					<line id="XMLID_175_" class="st4" x1="192.8" y1="-557.6" x2="197" y2="-551.7"/>
					<path id="XMLID_174_" class="st4" d="M213.4-601.4c2.2,7.5,3,14.9,2.3,21.7c-1.3,13.8-8.1,24.8-18.7,28"/>
					<path id="XMLID_173_" class="st4" d="M181.7-554.2c0.5,0.4,1,0.7,1.5,1.1c2.8,1.8,5.9,2.5,13.8,1.5"/>
					<line id="XMLID_172_" class="st4" x1="181.7" y1="-554.2" x2="178.8" y2="-561.5"/>
					<path id="XMLID_171_" class="st4" d="M209.1-602.1L209.1-602.1c-5.4-18.7-8.3-24.1-11.2-27.4c-0.6-0.7-1.2-1.3-1.8-1.9"/>
					<path id="XMLID_170_" class="st4" d="M223.6-599.8c-4.5-20-18.1-28.8-25.8-29.6"/>
					<path id="XMLID_169_" class="st4" d="M187.3-545.4c3.3,6,7.9,9.6,13.5,7.9"/>
					<path id="XMLID_168_" class="st4" d="M224.1-562.5c2.7,9.1-7.7,20.3-23.3,25"/>
					<path id="XMLID_167_" class="st4" d="M200.8-537.5c-2.3-7.8-4.1-14.1-3.8-14.2"/>
					<path id="XMLID_166_" class="st4" d="M186.7-525c-4.5-6.9-3.4-19.2,0.6-20.5"/>
					<path id="XMLID_165_" class="st4" d="M186.7-525c4.5,4.7,7.9,8.3,18.9,8.1"/>
					<path id="XMLID_164_" class="st4" d="M238-569.6c6.5,21.8-7.9,45.4-32.3,52.7"/>
					<path id="XMLID_163_" class="st4" d="M232.8-586.8c-0.1,2.7,0.2,5.1,0.6,7.2c1.4,6.5,4.5,9.9,4.5,9.9"/>
					<path id="XMLID_162_" class="st4" d="M183.2-553.2c-0.7,5,2.7,5.1,4.1,7.8"/>
					<line id="XMLID_161_" class="st4" x1="215.7" y1="-579.7" x2="233.4" y2="-579.5"/>
				</g>
			</g>
		</g>
		<g id="XMLID_123_">
			<g id="XMLID_124_">
				<g id="XMLID_149_">
					<path id="XMLID_157_" class="st3" d="M472-184.6l6,12.6c-0.1,2.7,0.2,5.1,0.6,7.2l-17.7-0.2c0.6-6.8-0.1-14.2-2.3-21.7
						l10.2,1.6L472-184.6z"/>
					<path id="XMLID_156_" class="st3" d="M445.9-122.7c-2.3-7.8-4.1-14.1-3.8-14.2c10.6-3.2,17.4-14.2,18.7-28l17.7,0.2
						c1.4,6.5,4.5,9.9,4.5,9.9c6.5,21.8-7.9,45.4-32.3,52.7c-11,0.2-14.5-3.4-18.9-8.1c-4.5-6.9-3.4-19.2,0.6-20.5
						C435.7-124.7,440.3-121,445.9-122.7z"/>
					<path id="XMLID_155_" class="st3" d="M443-214.7c7.7,0.8,21.2,9.7,25.8,29.6l-10.2-1.6l-4.3-0.7
						C448.8-206.1,445.9-211.4,443-214.7z"/>
					<path id="XMLID_154_" class="st3" d="M454.2-187.3l4.3,0.7c2.2,7.5,3,14.9,2.3,21.7c-1.3,13.8-8.1,24.8-18.7,28l-4.2-5.9
						c-0.6-0.2-1.3-0.5-1.9-0.9c15.2-14.9,17-23.5,15.2-44.1L454.2-187.3z"/>
					<path id="XMLID_153_" class="st3" d="M443-214.7c2.9,3.3,5.9,8.6,11.2,27.4l-3-0.5c1.8,20.6-0.1,29.1-15.2,44.1
						c-6.4-4.3-15-20.5-22.3-44.9c-5-16.8-4.5-31.8,1.1-33.5c12.5-3.8,20.3-1.4,26.4,5.4C441.7-216,442.4-215.4,443-214.7z"/>
					<path id="XMLID_152_" class="st3" d="M437.9-142.8l4.2,5.9c-7.8,1-10.9,0.3-13.8-1.5c-0.5-0.3-1-0.7-1.5-1.1l-2.9-7.3
						c3.8,2.1,7.9,3.3,12.1,3C436.6-143.3,437.3-143,437.9-142.8z"/>
					<path id="XMLID_151_" class="st3" d="M442.1-136.9c-0.2,0.1,1.5,6.4,3.8,14.2c-5.6,1.7-10.2-1.9-13.5-7.9
						c-1.4-2.6-4.8-2.7-4.1-7.8C431.2-136.6,434.3-135.9,442.1-136.9z"/>
					<path id="XMLID_150_" class="st3" d="M414.8-222.1c-5.6,1.7-6.1,16.7-1.1,33.5c7.3,24.4,15.9,40.6,22.3,44.9
						c-4.2,0.3-8.3-1-12.1-3c-8.2-4.5-15-13-18.2-19.3C393-190.8,401.6-218.1,414.8-222.1z"/>
				</g>
				<g id="XMLID_125_">
					<path id="XMLID_148_" class="st4" d="M413.7-188.6c7.3,24.4,15.9,40.6,22.3,44.9c0.7,0.4,1.3,0.8,1.9,0.9"/>
					<path id="XMLID_147_" class="st4" d="M413.7-188.6c-5-16.8-4.5-31.8,1.1-33.5"/>
					<path id="XMLID_146_" class="st4" d="M441.1-216.6c-6.1-6.8-13.8-9.2-26.4-5.4"/>
					<path id="XMLID_145_" class="st4" d="M405.7-166c-12.7-24.8-4-52.1,9.1-56"/>
					<path id="XMLID_144_" class="st4" d="M405.7-166c3.2,6.2,10,14.8,18.2,19.3c3.8,2.1,7.9,3.3,12.1,3"/>
					<path id="XMLID_143_" class="st4" d="M451.2-187.8c1.8,20.6-0.1,29.1-15.2,44.1"/>
					<polyline id="XMLID_142_" class="st4" points="451.2,-187.8 454.2,-187.3 458.5,-186.7 468.7,-185.1 472,-184.6 					"/>
					<line id="XMLID_141_" class="st4" x1="472" y1="-184.6" x2="477.9" y2="-172"/>
					<line id="XMLID_140_" class="st4" x1="437.9" y1="-142.8" x2="442.1" y2="-136.9"/>
					<path id="XMLID_139_" class="st4" d="M458.5-186.7c2.2,7.5,3,14.9,2.3,21.7c-1.3,13.8-8.1,24.8-18.7,28"/>
					<path id="XMLID_138_" class="st4" d="M426.8-139.5c0.5,0.4,1,0.7,1.5,1.1c2.8,1.8,5.9,2.5,13.8,1.5"/>
					<line id="XMLID_137_" class="st4" x1="426.8" y1="-139.5" x2="423.9" y2="-146.8"/>
					<path id="XMLID_136_" class="st4" d="M454.2-187.3L454.2-187.3c-5.4-18.7-8.3-24.1-11.2-27.4c-0.6-0.7-1.2-1.3-1.8-1.9"/>
					<path id="XMLID_135_" class="st4" d="M468.7-185.1c-4.5-20-18.1-28.8-25.8-29.6"/>
					<path id="XMLID_134_" class="st4" d="M432.4-130.7c3.3,6,7.9,9.6,13.5,7.9"/>
					<path id="XMLID_133_" class="st4" d="M469.2-147.7c2.7,9.1-7.7,20.3-23.3,25"/>
					<path id="XMLID_132_" class="st4" d="M445.9-122.7c-2.3-7.8-4.1-14.1-3.8-14.2"/>
					<path id="XMLID_131_" class="st4" d="M431.8-110.2c-4.5-6.9-3.4-19.2,0.6-20.5"/>
					<path id="XMLID_130_" class="st4" d="M431.8-110.2c4.5,4.7,7.9,8.3,18.9,8.1"/>
					<path id="XMLID_129_" class="st4" d="M483.1-154.8c6.5,21.8-7.9,45.4-32.3,52.7"/>
					<path id="XMLID_128_" class="st4" d="M477.9-172c-0.1,2.7,0.2,5.1,0.6,7.2c1.4,6.5,4.5,9.9,4.5,9.9"/>
					<path id="XMLID_127_" class="st4" d="M428.3-138.4c-0.7,5,2.7,5.1,4.1,7.8"/>
					<line id="XMLID_126_" class="st4" x1="460.8" y1="-165" x2="478.5" y2="-164.8"/>
				</g>
			</g>
		</g>
		<g id="XMLID_121_">
			<polygon id="XMLID_122_" class="st2" points="127.2,-102.1 147.8,-72.4 182.4,-82.7 160.5,-54 181.1,-24.3 147,-36.2 125.1,-7.5 
				125.9,-43.6 91.8,-55.6 126.4,-65.9 			"/>
		</g>
	</g>
</pattern>
<pattern  id="XMLID_9_" xlink:href="#czv_patern" patternTransform="matrix(1 0 0 1 180.9697 49.0574)">
</pattern>
<rect id="XMLID_40_" class="st5" width="2000" height="2000"/>
<g id="XMLID_2_">
</g>
<g id="XMLID_3_">
</g>
<g id="XMLID_4_">
</g>
<g id="XMLID_5_">
</g>
<g id="XMLID_6_">
</g>
<g id="XMLID_7_">
</g>
</svg>
