<svg width="42" height="42" viewBox="0 0 42 42" fill="none" xmlns="http://www.w3.org/2000/svg">
<g filter="url(#filter0_d)">
<g filter="url(#filter1_d)">
<path d="M8.2 6.04158H17.6359M8.2 9.33261H28.0396M8.2 12.6236H26.3825M8.2 15.4245H25.6153M8.2 18.2954H25.3474M24.0359 29.1488H27.1538H30.2718M34.4564 5.06127C31.4929 10.557 29.6872 13.9055 26.9801 18.9258M25.9231 20.886C25.5128 20.6293 24.678 17.5529 26.3333 12.7637C27.2089 10.2306 28.6719 8.23546 30.2718 6.60348C30.5828 6.28625 30.899 5.98273 31.217 5.69166C31.5302 5.40495 31.8453 5.13032 32.159 4.86652C32.659 4.44603 33.1556 4.05308 33.6359 3.68272M25.9231 20.886C28.0587 20.4624 31.2166 18.5757 33.6541 15.4947L33.6411 28.0052C33.6382 30.7646 31.4005 33 28.6411 33H10C7.23858 33 5 30.7614 5 28V6C5 3.23858 7.23857 1 10 1H30.9532C32.4348 1 33.6359 2.20109 33.6359 3.68272V3.68272M25.9231 20.886C26.292 20.2018 26.6431 19.5508 26.9801 18.9258M25.9231 20.886L26.9801 18.9258M26.9801 18.9258L25.7952 21.1315L24.6103 23.3372M33.6541 15.4245C35.441 12.7637 36.5077 7.51223 37 1C36.1916 1.79027 34.9772 2.64845 33.6359 3.68272" stroke="white" stroke-width="2" stroke-linejoin="round"/>
</g>
</g>
<defs>
<filter id="filter0_d" x="0" y="-3.05176e-05" width="42" height="42" filterUnits="userSpaceOnUse" color-interpolation-filters="sRGB">
<feFlood flood-opacity="0" result="BackgroundImageFix"/>
<feColorMatrix in="SourceAlpha" type="matrix" values="0 0 0 0 0 0 0 0 0 0 0 0 0 0 0 0 0 0 127 0"/>
<feOffset dy="4"/>
<feGaussianBlur stdDeviation="2"/>
<feColorMatrix type="matrix" values="0 0 0 0 0 0 0 0 0 0 0 0 0 0 0 0 0 0 0.25 0"/>
<feBlend mode="normal" in2="BackgroundImageFix" result="effect1_dropShadow"/>
<feBlend mode="normal" in="SourceGraphic" in2="effect1_dropShadow" result="shape"/>
</filter>
<filter id="filter1_d" x="0" y="-3.05176e-05" width="42" height="42" filterUnits="userSpaceOnUse" color-interpolation-filters="sRGB">
<feFlood flood-opacity="0" result="BackgroundImageFix"/>
<feColorMatrix in="SourceAlpha" type="matrix" values="0 0 0 0 0 0 0 0 0 0 0 0 0 0 0 0 0 0 127 0"/>
<feOffset dy="4"/>
<feGaussianBlur stdDeviation="2"/>
<feColorMatrix type="matrix" values="0 0 0 0 0 0 0 0 0 0 0 0 0 0 0 0 0 0 0.25 0"/>
<feBlend mode="normal" in2="BackgroundImageFix" result="effect1_dropShadow"/>
<feBlend mode="normal" in="SourceGraphic" in2="effect1_dropShadow" result="shape"/>
</filter>
</defs>
</svg>
