<svg width="25" height="23" viewBox="0 0 25 23" fill="none" xmlns="http://www.w3.org/2000/svg">
<path d="M22.425 13.158L4.74999 21.628C4.37196 21.8026 3.94336 21.895 3.50684 21.896C3.07031 21.897 2.64107 21.8065 2.26183 21.6336C1.88258 21.4606 1.56655 21.2113 1.34517 20.9103C1.12379 20.6093 1.00478 20.2672 0.999984 19.918L0.999984 2.97798C1.00478 2.62878 1.12379 2.28667 1.34517 1.98569C1.56655 1.6847 1.88258 1.43534 2.26183 1.2624C2.64107 1.08947 3.07031 0.998988 3.50684 0.999966C3.94336 1.00094 4.37196 1.09334 4.74999 1.26798L22.425 9.73798C22.7924 9.91625 23.0961 10.1673 23.3069 10.4668C23.5177 10.7663 23.6284 11.1042 23.6284 11.448C23.6284 11.7917 23.5177 12.1296 23.3069 12.4292C23.0961 12.7287 22.7924 12.9797 22.425 13.158V13.158Z" stroke="white" stroke-width="2" stroke-linecap="round" stroke-linejoin="round"/>
</svg>
