<svg width="40" height="40" viewBox="0 0 40 40" fill="none" xmlns="http://www.w3.org/2000/svg">
<g filter="url(#filter0_d)">
<rect x="5" y="17.8927" width="7.16239" height="12.97" rx="2" stroke="white" stroke-width="2"/>
</g>
<g filter="url(#filter1_d)">
<rect x="16.3504" y="8.96567" width="7.16239" height="21.897" rx="2" stroke="white" stroke-width="2"/>
</g>
<g filter="url(#filter2_d)">
<rect x="27.8376" y="14.4592" width="7.1624" height="16.5408" rx="2" stroke="white" stroke-width="2"/>
</g>
<g filter="url(#filter3_d)">
<mask id="path-4-inside-1" fill="white">
<path d="M19.9316 0L20.9602 2.32502H24.2886L21.5958 3.76197L22.6244 6.08699L19.9316 4.65005L17.2389 6.08699L18.2674 3.76197L15.5747 2.32502H18.9031L19.9316 0Z"/>
</mask>
<path d="M19.9316 0L20.9602 2.32502H24.2886L21.5958 3.76197L22.6244 6.08699L19.9316 4.65005L17.2389 6.08699L18.2674 3.76197L15.5747 2.32502H18.9031L19.9316 0Z" fill="#0E0E0E"/>
<path d="M19.9316 0L28.1622 -3.64105L19.9316 -22.2464L11.701 -3.64105L19.9316 0ZM20.9602 2.32502L12.7296 5.96607L15.1003 11.325H20.9602V2.32502ZM24.2886 2.32502L28.5258 10.2652L24.2886 -6.67498V2.32502ZM21.5958 3.76197L17.3587 -4.17822L9.98309 -0.242356L13.3652 7.40302L21.5958 3.76197ZM22.6244 6.08699L18.3872 14.0272L41.4142 26.3151L30.855 2.44595L22.6244 6.08699ZM19.9316 4.65005L24.1688 -3.29014L19.9316 -5.55122L15.6945 -3.29014L19.9316 4.65005ZM17.2389 6.08699L9.00827 2.44595L-1.55096 26.3151L21.476 14.0272L17.2389 6.08699ZM18.2674 3.76197L26.498 7.40302L29.8802 -0.242355L22.5046 -4.17822L18.2674 3.76197ZM15.5747 2.32502V-6.67498L11.3375 10.2652L15.5747 2.32502ZM18.9031 2.32502V11.325H24.763L27.1337 5.96607L18.9031 2.32502ZM11.701 3.64105L12.7296 5.96607L29.1908 -1.31602L28.1622 -3.64105L11.701 3.64105ZM20.9602 11.325H24.2886V-6.67498H20.9602V11.325ZM20.0515 -5.61517L17.3587 -4.17822L25.833 11.7022L28.5258 10.2652L20.0515 -5.61517ZM13.3652 7.40302L14.3938 9.72804L30.855 2.44595L29.8264 0.120922L13.3652 7.40302ZM26.8615 -1.8532L24.1688 -3.29014L15.6945 12.5902L18.3872 14.0272L26.8615 -1.8532ZM15.6945 -3.29014L13.0017 -1.8532L21.476 14.0272L24.1688 12.5902L15.6945 -3.29014ZM25.4695 9.72804L26.498 7.40302L10.0368 0.120922L9.00827 2.44595L25.4695 9.72804ZM22.5046 -4.17822L19.8118 -5.61517L11.3375 10.2652L14.0303 11.7022L22.5046 -4.17822ZM15.5747 11.325H18.9031V-6.67498H15.5747V11.325ZM27.1337 5.96607L28.1622 3.64105L11.701 -3.64105L10.6725 -1.31602L27.1337 5.96607Z" fill="white" mask="url(#path-4-inside-1)"/>
</g>
<g filter="url(#filter4_d)">
<mask id="path-6-inside-2" fill="white">
<path d="M8.5812 10.0258L9.60974 12.3982H12.9382L10.2454 13.8645L11.274 16.237L8.5812 14.7707L5.88844 16.237L6.91698 13.8645L4.22422 12.3982H7.55265L8.5812 10.0258Z"/>
</mask>
<path d="M8.5812 10.0258L9.60974 12.3982H12.9382L10.2454 13.8645L11.274 16.237L8.5812 14.7707L5.88844 16.237L6.91698 13.8645L4.22422 12.3982H7.55265L8.5812 10.0258Z" fill="#0E0E0E"/>
<path d="M8.5812 10.0258L16.8386 6.44591L8.5812 -12.6009L0.323794 6.44591L8.5812 10.0258ZM9.60974 12.3982L1.35234 15.9781L3.70214 21.3982H9.60974V12.3982ZM12.9382 12.3982L17.2422 20.3024L12.9382 3.39823V12.3982ZM10.2454 13.8645L5.94142 5.96035L-1.28479 9.89519L1.98801 17.4443L10.2454 13.8645ZM11.274 16.237L6.96996 24.1411L29.9302 36.6435L19.5314 12.6571L11.274 16.237ZM8.5812 14.7707L12.8852 6.86655L8.5812 4.52293L4.27721 6.86655L8.5812 14.7707ZM5.88844 16.237L-2.36897 12.6571L-12.7678 36.6435L10.1924 24.1411L5.88844 16.237ZM6.91698 13.8645L15.1744 17.4443L18.4472 9.89519L11.221 5.96035L6.91698 13.8645ZM4.22422 12.3982V3.39823L-0.0797739 20.3024L4.22422 12.3982ZM7.55265 12.3982V21.3982H13.4602L15.8101 15.9781L7.55265 12.3982ZM0.323794 13.6056L1.35234 15.9781L17.8671 8.81838L16.8386 6.44591L0.323794 13.6056ZM9.60974 21.3982H12.9382V3.39823H9.60974V21.3982ZM8.63418 4.49408L5.94142 5.96035L14.5494 21.7687L17.2422 20.3024L8.63418 4.49408ZM1.98801 17.4443L3.01655 19.8168L19.5314 12.6571L18.5028 10.2847L1.98801 17.4443ZM15.5779 8.33282L12.8852 6.86655L4.27721 22.6749L6.96996 24.1411L15.5779 8.33282ZM4.27721 6.86655L1.58444 8.33282L10.1924 24.1411L12.8852 22.6749L4.27721 6.86655ZM14.1458 19.8168L15.1744 17.4443L-1.34042 10.2847L-2.36897 12.6571L14.1458 19.8168ZM11.221 5.96035L8.52821 4.49408L-0.0797739 20.3024L2.61299 21.7687L11.221 5.96035ZM4.22422 21.3982H7.55265V3.39823H4.22422V21.3982ZM15.8101 15.9781L16.8386 13.6056L0.323794 6.44591L-0.704749 8.81838L15.8101 15.9781Z" fill="white" mask="url(#path-6-inside-2)"/>
</g>
<g filter="url(#filter5_d)">
<mask id="path-8-inside-3" fill="white">
<path d="M31.4188 6.72961L32.4474 9.05464H35.7758L33.083 10.4916L34.1116 12.8166L31.4188 11.3797L28.7261 12.8166L29.7546 10.4916L27.0618 9.05464H30.3903L31.4188 6.72961Z"/>
</mask>
<path d="M31.4188 6.72961L32.4474 9.05464H35.7758L33.083 10.4916L34.1116 12.8166L31.4188 11.3797L28.7261 12.8166L29.7546 10.4916L27.0618 9.05464H30.3903L31.4188 6.72961Z" fill="#0E0E0E"/>
<path d="M31.4188 6.72961L39.6494 3.08856L31.4188 -15.5167L23.1882 3.08856L31.4188 6.72961ZM32.4474 9.05464L24.2168 12.6957L26.5875 18.0546H32.4474V9.05464ZM35.7758 9.05464L40.0129 16.9948L35.7758 0.0546379V9.05464ZM33.083 10.4916L28.8459 2.55139L21.4703 6.48726L24.8524 14.1326L33.083 10.4916ZM34.1116 12.8166L29.8744 20.7568L52.9014 33.0447L42.3422 9.17556L34.1116 12.8166ZM31.4188 11.3797L35.656 3.43947L31.4188 1.1784L27.1817 3.43947L31.4188 11.3797ZM28.7261 12.8166L20.4955 9.17556L9.93622 33.0447L32.9632 20.7568L28.7261 12.8166ZM29.7546 10.4916L37.9852 14.1326L41.3674 6.48726L33.9917 2.55139L29.7546 10.4916ZM27.0618 9.05464V0.0546379L22.8247 16.9948L27.0618 9.05464ZM30.3903 9.05464V18.0546H36.2502L38.6209 12.6957L30.3903 9.05464ZM23.1882 10.3707L24.2168 12.6957L40.678 5.41359L39.6494 3.08856L23.1882 10.3707ZM32.4474 18.0546H35.7758V0.0546379H32.4474V18.0546ZM31.5387 1.11445L28.8459 2.55139L37.3202 18.4318L40.0129 16.9948L31.5387 1.11445ZM24.8524 14.1326L25.881 16.4577L42.3422 9.17556L41.3136 6.85053L24.8524 14.1326ZM38.3487 4.87641L35.656 3.43947L27.1817 19.3199L29.8744 20.7568L38.3487 4.87641ZM27.1817 3.43947L24.4889 4.87641L32.9632 20.7568L35.656 19.3199L27.1817 3.43947ZM36.9567 16.4577L37.9852 14.1326L21.524 6.85053L20.4955 9.17556L36.9567 16.4577ZM33.9917 2.55139L31.299 1.11445L22.8247 16.9948L25.5175 18.4318L33.9917 2.55139ZM27.0618 18.0546H30.3903V0.0546379H27.0618V18.0546ZM38.6209 12.6957L39.6494 10.3707L23.1882 3.08856L22.1597 5.41359L38.6209 12.6957Z" fill="white" mask="url(#path-8-inside-3)"/>
</g>
<defs>
<filter id="filter0_d" x="0" y="16.8927" width="17.1624" height="22.97" filterUnits="userSpaceOnUse" color-interpolation-filters="sRGB">
<feFlood flood-opacity="0" result="BackgroundImageFix"/>
<feColorMatrix in="SourceAlpha" type="matrix" values="0 0 0 0 0 0 0 0 0 0 0 0 0 0 0 0 0 0 127 0"/>
<feOffset dy="4"/>
<feGaussianBlur stdDeviation="2"/>
<feColorMatrix type="matrix" values="0 0 0 0 0 0 0 0 0 0 0 0 0 0 0 0 0 0 0.25 0"/>
<feBlend mode="normal" in2="BackgroundImageFix" result="effect1_dropShadow"/>
<feBlend mode="normal" in="SourceGraphic" in2="effect1_dropShadow" result="shape"/>
</filter>
<filter id="filter1_d" x="11.3504" y="7.96567" width="17.1624" height="31.897" filterUnits="userSpaceOnUse" color-interpolation-filters="sRGB">
<feFlood flood-opacity="0" result="BackgroundImageFix"/>
<feColorMatrix in="SourceAlpha" type="matrix" values="0 0 0 0 0 0 0 0 0 0 0 0 0 0 0 0 0 0 127 0"/>
<feOffset dy="4"/>
<feGaussianBlur stdDeviation="2"/>
<feColorMatrix type="matrix" values="0 0 0 0 0 0 0 0 0 0 0 0 0 0 0 0 0 0 0.25 0"/>
<feBlend mode="normal" in2="BackgroundImageFix" result="effect1_dropShadow"/>
<feBlend mode="normal" in="SourceGraphic" in2="effect1_dropShadow" result="shape"/>
</filter>
<filter id="filter2_d" x="22.8376" y="13.4592" width="17.1624" height="26.5408" filterUnits="userSpaceOnUse" color-interpolation-filters="sRGB">
<feFlood flood-opacity="0" result="BackgroundImageFix"/>
<feColorMatrix in="SourceAlpha" type="matrix" values="0 0 0 0 0 0 0 0 0 0 0 0 0 0 0 0 0 0 127 0"/>
<feOffset dy="4"/>
<feGaussianBlur stdDeviation="2"/>
<feColorMatrix type="matrix" values="0 0 0 0 0 0 0 0 0 0 0 0 0 0 0 0 0 0 0.25 0"/>
<feBlend mode="normal" in2="BackgroundImageFix" result="effect1_dropShadow"/>
<feBlend mode="normal" in="SourceGraphic" in2="effect1_dropShadow" result="shape"/>
</filter>
<filter id="filter3_d" x="11.5746" y="0" width="16.714" height="14.087" filterUnits="userSpaceOnUse" color-interpolation-filters="sRGB">
<feFlood flood-opacity="0" result="BackgroundImageFix"/>
<feColorMatrix in="SourceAlpha" type="matrix" values="0 0 0 0 0 0 0 0 0 0 0 0 0 0 0 0 0 0 127 0"/>
<feOffset dy="4"/>
<feGaussianBlur stdDeviation="2"/>
<feColorMatrix type="matrix" values="0 0 0 0 0 0 0 0 0 0 0 0 0 0 0 0 0 0 0.25 0"/>
<feBlend mode="normal" in2="BackgroundImageFix" result="effect1_dropShadow"/>
<feBlend mode="normal" in="SourceGraphic" in2="effect1_dropShadow" result="shape"/>
</filter>
<filter id="filter4_d" x="0.224213" y="10.0258" width="16.714" height="14.2112" filterUnits="userSpaceOnUse" color-interpolation-filters="sRGB">
<feFlood flood-opacity="0" result="BackgroundImageFix"/>
<feColorMatrix in="SourceAlpha" type="matrix" values="0 0 0 0 0 0 0 0 0 0 0 0 0 0 0 0 0 0 127 0"/>
<feOffset dy="4"/>
<feGaussianBlur stdDeviation="2"/>
<feColorMatrix type="matrix" values="0 0 0 0 0 0 0 0 0 0 0 0 0 0 0 0 0 0 0.25 0"/>
<feBlend mode="normal" in2="BackgroundImageFix" result="effect1_dropShadow"/>
<feBlend mode="normal" in="SourceGraphic" in2="effect1_dropShadow" result="shape"/>
</filter>
<filter id="filter5_d" x="23.0618" y="6.72961" width="16.714" height="14.087" filterUnits="userSpaceOnUse" color-interpolation-filters="sRGB">
<feFlood flood-opacity="0" result="BackgroundImageFix"/>
<feColorMatrix in="SourceAlpha" type="matrix" values="0 0 0 0 0 0 0 0 0 0 0 0 0 0 0 0 0 0 127 0"/>
<feOffset dy="4"/>
<feGaussianBlur stdDeviation="2"/>
<feColorMatrix type="matrix" values="0 0 0 0 0 0 0 0 0 0 0 0 0 0 0 0 0 0 0.25 0"/>
<feBlend mode="normal" in2="BackgroundImageFix" result="effect1_dropShadow"/>
<feBlend mode="normal" in="SourceGraphic" in2="effect1_dropShadow" result="shape"/>
</filter>
</defs>
</svg>
